<svg xmlns="http://www.w3.org/2000/svg" width="1000" height="1000" id="empty" style=""><g id="icon"><path fill="#0fa6a8" d="M561.9229446757668 495.53781829122886L370.2229446757667 163.63781829122885C352.32294467576673 132.53781829122886 322.9229446757667 132.53781829122886 305.0229446757667 163.63781829122885L113.42294467576673 495.53781829122886C95.52294467576672 526.6378182912289 110.12294467576672 552.0378182912289 146.02294467576672 552.0378182912289L529.3229446757667 552.0378182912289C565.1229446757667 551.9378182912288 579.8229446757667 526.5378182912289 561.9229446757668 495.53781829122886ZM193.2229446757667 511.7378182912289L152.9229446757667 511.7378182912289C150.42294467576673 511.7378182912289 149.52294467576672 509.7378182912289 150.9229446757667 507.2378182912289L210.82294467576673 399.3378182912288C212.2229446757667 396.8378182912288 214.62294467576672 394.8378182912288 216.2229446757667 394.8378182912288L235.62294467576675 394.8378182912288L205.52294467576672 460.93781829122884C204.7229446757667 462.7378182912289 205.32294467576673 464.2378182912289 206.82294467576673 464.2378182912289L217.12294467576675 464.2378182912289L199.4229446757667 507.2378182912289C198.52294467576672 509.7378182912289 195.7229446757667 511.7378182912289 193.2229446757667 511.7378182912289ZM248.12294467576675 511.7378182912289L207.82294467576673 511.7378182912289C205.32294467576673 511.7378182912289 204.12294467576672 509.7378182912289 205.12294467576672 507.2378182912289L222.12294467576675 464.2378182912289L232.4229446757667 464.2378182912289C234.02294467576672 464.2378182912289 235.7229446757667 462.7378182912289 236.4229446757667 460.93781829122884L259.5229446757667 394.8378182912288L271.82294467576673 394.8378182912288L252.32294467576673 460.93781829122884C251.82294467576673 462.7378182912289 252.62294467576675 464.2378182912289 254.2229446757667 464.2378182912289L264.5229446757667 464.2378182912289L253.82294467576673 507.2378182912289C253.02294467576672 509.7378182912289 250.52294467576672 511.7378182912289 248.12294467576675 511.7378182912289ZM307.82294467576673 507.2378182912289C307.62294467576675 509.7378182912289 305.4229446757667 511.7378182912289 302.9229446757667 511.7378182912289L262.62294467576675 511.7378182912289C260.12294467576675 511.7378182912289 258.62294467576675 509.7378182912289 259.2229446757667 507.2378182912289L269.2229446757667 464.2378182912289L279.5229446757667 464.2378182912289C281.12294467576675 464.2378182912289 282.62294467576675 462.7378182912289 282.9229446757667 460.93781829122884L295.32294467576673 394.8378182912288L307.62294467576675 394.8378182912288L298.82294467576673 460.93781829122884C298.62294467576675 462.7378182912289 299.62294467576675 464.2378182912289 301.2229446757667 464.2378182912289L311.5229446757667 464.2378182912289L307.82294467576673 507.2378182912289ZM357.82294467576673 511.7378182912289L317.5229446757667 511.7378182912289C315.0229446757667 511.7378182912289 313.2229446757667 509.7378182912289 313.32294467576673 507.2378182912289L316.4229446757667 464.2378182912289L326.82294467576673 464.2378182912289C328.4229446757667 464.2378182912289 329.7229446757667 462.7378182912289 329.7229446757667 460.93781829122884L331.5229446757667 394.8378182912288L350.92294467576676 394.8378182912288C352.5229446757667 394.8378182912288 354.0229446757667 396.8378182912288 354.2229446757667 399.3378182912288L362.0229446757667 507.2378182912289C362.12294467576675 509.7378182912289 360.32294467576673 511.7378182912289 357.82294467576673 511.7378182912289ZM412.62294467576675 511.7378182912289L372.32294467576673 511.7378182912289C369.82294467576673 511.7378182912289 367.62294467576675 509.7378182912289 367.42294467576676 507.2378182912289L357.82294467576673 399.3378182912288C357.62294467576675 396.8378182912288 358.7229446757667 394.8378182912288 360.32294467576673 394.8378182912288L379.82294467576673 394.8378182912288L392.2229446757667 460.93781829122884C392.5229446757667 462.7378182912289 394.12294467576675 464.2378182912289 395.62294467576675 464.2378182912289L405.92294467576676 464.2378182912289L415.92294467576676 507.2378182912289C416.7229446757667 509.7378182912289 415.12294467576675 511.7378182912289 412.62294467576675 511.7378182912289ZM467.5229446757667 511.7378182912289L427.2229446757667 511.7378182912289C424.7229446757667 511.7378182912289 422.2229446757667 509.7378182912289 421.62294467576675 507.2378182912289L410.92294467576676 464.2378182912289L421.2229446757667 464.2378182912289C422.82294467576673 464.2378182912289 423.62294467576675 462.7378182912289 423.12294467576675 460.93781829122884L403.62294467576675 394.8378182912288L415.92294467576676 394.8378182912288L439.0229446757667 460.93781829122884C439.62294467576675 462.7378182912289 441.42294467576676 464.2378182912289 443.0229446757667 464.2378182912289L453.32294467576673 464.2378182912289L470.32294467576673 507.2378182912289C471.2229446757667 509.7378182912289 470.0229446757667 511.7378182912289 467.5229446757667 511.7378182912289ZM522.4229446757668 511.7378182912289L482.12294467576675 511.7378182912289C479.62294467576675 511.7378182912289 476.82294467576673 509.7378182912289 475.82294467576673 507.2378182912289L458.12294467576675 464.2378182912289L468.42294467576676 464.2378182912289C470.0229446757667 464.2378182912289 470.62294467576675 462.7378182912289 469.7229446757667 460.93781829122884L439.62294467576675 394.8378182912288L459.0229446757667 394.8378182912288C460.62294467576675 394.8378182912288 463.12294467576675 396.8378182912288 464.42294467576676 399.3378182912288L524.3229446757667 507.2378182912289C525.7229446757667 509.7378182912289 524.8229446757667 511.7378182912289 522.4229446757668 511.7378182912289Z " transform="matrix(1.5093527147305208,0,0,1.509352801493926,-9.654062720598692,-22.500661560415566)"></path><g transform="matrix(3.0187054294610416,0,0,3.018705602987852,-9.654062720598692,-22.500661560415566)"></g></g></svg>