<svg xmlns="http://www.w3.org/2000/svg" width="1000" height="1000" id="empty" style=""><g id="icon"><path fill="#f4080c" d="M453.4322176514309 186.4673842306181L485.4322176514309 133.5673842306181L407.5322176514309 211.4673842306181C409.83221765143094 215.0673842306181 411.9322176514309 218.6673842306181 413.83221765143094 222.36738423061811C438.1322176514309 269.1673842306181 432.0322176514309 311.1673842306181 430.9322176514309 319.2673842306181C429.0322176514309 333.06738423061813 444.33221765143094 340.2673842306181 439.9322176514309 359.3673842306181C431.0322176514309 398.06738423061813 409.0322176514309 432.1673842306181 406.4322176514309 436.2673842306181C403.83221765143094 440.4673842306181 402.7322176514309 444.1673842306181 395.2322176514309 446.9673842306181C387.7322176514309 449.7673842306181 381.6322176514309 453.7673842306181 375.5322176514309 452.8673842306181C369.4322176514309 451.9673842306181 361.7322176514309 446.4673842306181 361.7322176514309 446.4673842306181C354.2322176514309 446.2673842306181 353.4322176514309 439.8673842306181 353.4322176514309 439.8673842306181C353.4322176514309 439.8673842306181 329.9322176514309 443.3673842306181 334.83221765143094 415.2673842306181C339.6322176514309 387.1673842306181 355.0322176514309 351.2673842306181 364.83221765143094 330.8673842306181C374.7322176514309 310.4673842306181 386.0322176514309 301.9673842306181 395.33221765143094 306.06738423061813C401.2322176514309 308.6673842306181 403.6322176514309 313.56738423061813 403.6322176514309 313.56738423061813C403.6322176514309 313.56738423061813 406.9322176514309 312.8673842306181 411.7322176514309 319.06738423061813C411.7322176514309 319.06738423061813 422.9322176514309 270.3673842306181 399.9322176514309 228.1673842306181C403.83221765143094 227.9673842306181 404.83221765143094 225.6673842306181 404.83221765143094 225.6673842306181C384.6322176514309 234.6673842306181 363.33221765143094 185.26738423061812 301.9322176514309 185.26738423061812C240.53221765143093 185.26738423061812 219.23221765143091 234.5673842306181 199.13221765143092 225.5673842306181C199.13221765143092 225.5673842306181 200.13221765143092 227.6673842306181 204.03221765143093 228.1673842306181C181.03221765143093 270.3673842306181 192.23221765143091 319.06738423061813 192.23221765143091 319.06738423061813C197.03221765143093 312.9673842306181 200.3322176514309 313.56738423061813 200.3322176514309 313.56738423061813C200.3322176514309 313.56738423061813 202.73221765143091 308.7673842306181 208.63221765143092 306.06738423061813C217.9322176514309 301.9673842306181 229.23221765143091 310.4673842306181 239.13221765143092 330.8673842306181C249.03221765143093 351.2673842306181 264.33221765143094 387.1673842306181 269.1322176514309 415.2673842306181C273.9322176514309 443.3673842306181 250.53221765143093 439.8673842306181 250.53221765143093 439.8673842306181C250.53221765143093 439.8673842306181 249.63221765143092 446.2673842306181 242.23221765143091 446.4673842306181C242.23221765143091 446.4673842306181 234.53221765143093 451.9673842306181 228.4322176514309 452.8673842306181C222.3322176514309 453.7673842306181 216.13221765143092 449.7673842306181 208.73221765143091 446.9673842306181C201.23221765143091 444.06738423061813 200.23221765143091 440.3673842306181 197.53221765143093 436.2673842306181C196.8322176514309 435.1673842306181 194.8322176514309 431.9673842306181 192.03221765143093 427.2673842306181L170.63221765143092 448.6673842306181C205.13221765143092 480.56738423061813 251.3322176514309 500.1673842306181 302.0322176514309 500.1673842306181C408.9322176514309 500.1673842306181 495.5322176514309 413.56738423061813 495.5322176514309 306.6673842306181C495.2322176514309 261.1673842306181 479.5322176514309 219.4673842306181 453.4322176514309 186.4673842306181Z " transform="matrix(1.8073845134593318,0,0,1.8073843710451944,-45.617225010452245,-54.17549006516177)"></path><path fill="#ffffff" d="M229.9322176514309 400.4673842306181C228.8322176514309 398.06738423061813 227.8322176514309 395.6673842306181 226.8322176514309 393.2673842306181C224.8322176514309 388.4673842306181 222.8322176514309 383.6673842306181 220.8322176514309 378.7673842306181L215.13221765143092 364.1673842306181L212.3322176514309 356.8673842306181L209.53221765143093 349.56738423061813C208.63221765143092 347.1673842306181 207.73221765143091 344.6673842306181 206.8322176514309 342.1673842306181C205.9322176514309 339.6673842306181 205.03221765143093 337.2673842306181 204.13221765143092 334.7673842306181C203.23221765143091 332.2673842306181 202.4322176514309 329.8673842306181 201.63221765143092 327.3673842306181C201.23221765143091 326.1673842306181 200.8322176514309 324.8673842306181 200.53221765143093 323.6673842306181C200.13221765143092 322.3673842306181 199.8322176514309 321.1673842306181 199.63221765143092 319.8673842306181L199.53221765143093 319.8673842306181C199.3322176514309 322.56738423061813 199.8322176514309 325.1673842306181 200.23221765143091 327.7673842306181C200.73221765143091 330.3673842306181 201.23221765143091 332.9673842306181 201.8322176514309 335.56738423061813C202.4322176514309 338.1673842306181 203.03221765143093 340.6673842306181 203.73221765143091 343.2673842306181C204.4322176514309 345.7673842306181 205.13221765143092 348.3673842306181 205.9322176514309 350.8673842306181C209.03221765143093 360.9673842306181 212.53221765143093 370.8673842306181 216.63221765143092 380.56738423061813C218.63221765143092 385.4673842306181 220.73221765143091 390.2673842306181 222.9322176514309 395.06738423061813C224.03221765143093 397.4673842306181 225.13221765143092 399.8673842306181 226.3322176514309 402.1673842306181C227.53221765143093 404.56738423061813 228.73221765143091 406.8673842306181 229.9322176514309 409.1673842306181C234.8322176514309 418.4673842306181 240.23221765143091 427.56738423061813 246.53221765143093 436.06738423061813L246.63221765143092 435.9673842306181C241.8322176514309 426.56738423061813 237.3322176514309 417.1673842306181 233.13221765143092 407.56738423061813C231.9322176514309 405.2673842306181 230.9322176514309 402.8673842306181 229.9322176514309 400.4673842306181Z " transform="matrix(1.8073845134593318,0,0,1.8073843710451944,-45.617225010452245,-54.17549006516177)"></path><path fill="#00acee" d="M398.5322176514309 199.1673842306181L433.1322176514309 164.5673842306181C398.6322176514309 132.6673842306181 352.4322176514309 113.0673842306181 301.7322176514309 113.0673842306181C194.83221765143088 113.0673842306181 108.2322176514309 199.6673842306181 108.2322176514309 306.56738423061813C108.2322176514309 351.4673842306181 123.5322176514309 392.7673842306181 149.23221765143091 425.56738423061813L118.1322176514309 479.56738423061813L124.7322176514309 472.9673842306181L175.73221765143091 421.9673842306181L175.73221765143091 421.9673842306181L184.23221765143091 413.4673842306181C176.9322176514309 399.2673842306181 168.4322176514309 379.9673842306181 163.73221765143091 359.2673842306181C159.33221765143088 340.1673842306181 174.6322176514309 332.9673842306181 172.73221765143091 319.1673842306181C171.6322176514309 311.06738423061813 165.5322176514309 269.06738423061813 189.83221765143088 222.26738423061812C206.9322176514309 189.36738423061811 238.53221765143093 158.26738423061812 301.8322176514309 158.26738423061812C349.7322176514309 158.26738423061812 379.5322176514309 176.1673842306181 398.5322176514309 199.1673842306181Z " transform="matrix(1.8073845134593318,0,0,1.8073843710451944,-45.617225010452245,-54.17549006516177)"></path><path fill="#00acee" d="M246.23221765143091 367.06738423061813L242.03221765143093 355.9673842306181L237.8322176514309 344.8673842306181C235.03221765143093 337.4673842306181 232.13221765143092 330.06738423061813 229.03221765143093 322.7673842306181L228.9322176514309 322.7673842306181C230.8322176514309 330.4673842306181 233.03221765143093 338.06738423061813 235.53221765143093 345.6673842306181C236.73221765143091 349.4673842306181 238.03221765143093 353.1673842306181 239.3322176514309 356.9673842306181C240.63221765143092 360.6673842306181 242.03221765143093 364.4673842306181 243.4322176514309 368.1673842306181C246.23221765143091 375.56738423061813 249.13221765143092 382.9673842306181 252.3322176514309 390.2673842306181C255.53221765143093 397.56738423061813 258.83221765143094 404.7673842306181 262.5322176514309 411.7673842306181L262.6322176514309 411.7673842306181C260.0322176514309 404.2673842306181 257.33221765143094 396.8673842306181 254.53221765143093 389.3673842306181L246.23221765143091 367.06738423061813Z " transform="matrix(1.8073845134593318,0,0,1.8073843710451944,-45.617225010452245,-54.17549006516177)"></path><path fill="#00acee" d="M364.1322176514309 356.8673842306181C365.4322176514309 353.06738423061813 366.7322176514309 349.3673842306181 367.9322176514309 345.56738423061813C370.33221765143094 337.9673842306181 372.6322176514309 330.3673842306181 374.5322176514309 322.6673842306181L374.4322176514309 322.6673842306181C371.33221765143094 329.9673842306181 368.4322176514309 337.3673842306181 365.6322176514309 344.7673842306181C364.1322176514309 348.4673842306181 362.83221765143094 352.1673842306181 361.4322176514309 355.8673842306181L357.2322176514309 366.9673842306181L348.9322176514309 389.2673842306181C346.2322176514309 396.6673842306181 343.4322176514309 404.1673842306181 340.9322176514309 411.6673842306181L341.0322176514309 411.6673842306181C344.7322176514309 404.6673842306181 348.1322176514309 397.4673842306181 351.2322176514309 390.1673842306181C352.83221765143094 386.56738423061813 354.33221765143094 382.8673842306181 355.83221765143094 379.1673842306181C357.33221765143094 375.4673842306181 358.7322176514309 371.7673842306181 360.1322176514309 368.06738423061813C361.5322176514309 364.3673842306181 362.83221765143094 360.6673842306181 364.1322176514309 356.8673842306181Z " transform="matrix(1.8073845134593318,0,0,1.8073843710451944,-45.617225010452245,-54.17549006516177)"></path><path fill="#00acee" d="M403.83221765143094 319.8673842306181C403.6322176514309 321.1673842306181 403.33221765143094 322.4673842306181 402.9322176514309 323.6673842306181C402.6322176514309 324.9673842306181 402.2322176514309 326.1673842306181 401.83221765143094 327.3673842306181C401.0322176514309 329.8673842306181 400.2322176514309 332.3673842306181 399.33221765143094 334.7673842306181C398.4322176514309 337.2673842306181 397.6322176514309 339.6673842306181 396.7322176514309 342.1673842306181C395.83221765143094 344.6673842306181 394.9322176514309 347.06738423061813 394.0322176514309 349.56738423061813L391.2322176514309 356.8673842306181L388.4322176514309 364.1673842306181C386.5322176514309 369.06738423061813 384.6322176514309 373.8673842306181 382.7322176514309 378.7673842306181C378.83221765143094 388.4673842306181 374.7322176514309 398.06738423061813 370.5322176514309 407.56738423061813C366.2322176514309 417.06738423061813 361.83221765143094 426.56738423061813 357.0322176514309 435.9673842306181L357.1322176514309 436.06738423061813C363.4322176514309 427.56738423061813 368.83221765143094 418.4673842306181 373.7322176514309 409.1673842306181C378.6322176514309 399.8673842306181 383.0322176514309 390.2673842306181 387.0322176514309 380.4673842306181C389.0322176514309 375.56738423061813 390.9322176514309 370.6673842306181 392.7322176514309 365.7673842306181C393.6322176514309 363.2673842306181 394.4322176514309 360.7673842306181 395.33221765143094 358.2673842306181C396.1322176514309 355.7673842306181 397.0322176514309 353.2673842306181 397.7322176514309 350.7673842306181C398.5322176514309 348.2673842306181 399.2322176514309 345.6673842306181 399.9322176514309 343.1673842306181C400.6322176514309 340.6673842306181 401.2322176514309 338.06738423061813 401.83221765143094 335.4673842306181C402.4322176514309 332.8673842306181 402.9322176514309 330.2673842306181 403.4322176514309 327.6673842306181C403.83221765143094 325.06738423061813 404.33221765143094 322.4673842306181 404.1322176514309 319.7673842306181L403.83221765143094 319.8673842306181Z " transform="matrix(1.8073845134593318,0,0,1.8073843710451944,-45.617225010452245,-54.17549006516177)"></path><g transform="matrix(3.6147690269186636,0,0,3.614768742090389,-45.617225010452245,-54.17549006516177)"></g></g></svg>